<svg width="3452" height="945" viewBox="0 0 3452 945" fill="none" xmlns="http://www.w3.org/2000/svg">
<rect width="945" height="945" rx="210" fill="#008080"/>
<g filter="url(#filter0_d_114_54)">
<path d="M462.477 162.799C465.44 153.525 478.562 153.524 481.527 162.798L674.959 767.795C678.238 778.05 665.22 785.533 658.009 777.538L289.297 368.759C283.288 362.097 272.225 366.106 271.879 375.07L257.834 738.629C257.385 750.26 273.809 753.147 277.352 742.059L462.477 162.799Z" fill="url(#paint0_linear_114_54)"/>
</g>
<path d="M1426.1 327.386V213.182H1917.86V327.386H1741.44V795H1602.81V327.386H1426.1ZM2297.94 803.239C2252.3 803.239 2212.9 794.242 2179.76 776.25C2146.8 758.068 2121.43 732.216 2103.62 698.693C2086.01 664.981 2077.2 624.924 2077.2 578.523C2077.2 533.447 2086.1 494.053 2103.91 460.341C2121.71 426.439 2146.8 400.114 2179.19 381.364C2211.58 362.424 2249.74 352.955 2293.68 352.955C2324.74 352.955 2353.15 357.784 2378.91 367.443C2404.66 377.102 2426.92 391.402 2445.67 410.341C2464.42 429.28 2479 452.67 2489.42 480.511C2499.84 508.163 2505.04 539.886 2505.04 575.682V610.341H2125.78V529.659H2375.78C2375.59 514.886 2372.09 501.723 2365.27 490.17C2358.45 478.617 2349.08 469.621 2337.15 463.182C2325.4 456.553 2311.86 453.239 2296.52 453.239C2280.99 453.239 2267.07 456.742 2254.76 463.75C2242.45 470.568 2232.69 479.943 2225.5 491.875C2218.3 503.617 2214.51 516.97 2214.13 531.932V614.034C2214.13 631.837 2217.64 647.462 2224.65 660.909C2231.65 674.167 2241.6 684.489 2254.48 691.875C2267.35 699.261 2282.69 702.955 2300.5 702.955C2312.81 702.955 2323.98 701.25 2334.02 697.841C2344.06 694.432 2352.68 689.413 2359.87 682.784C2367.07 676.155 2372.47 668.011 2376.07 658.352L2503.62 662.045C2498.32 690.644 2486.67 715.549 2468.68 736.761C2450.88 757.784 2427.49 774.167 2398.51 785.909C2369.53 797.462 2336.01 803.239 2297.94 803.239ZM2806.43 802.386C2778.59 802.386 2753.87 797.746 2732.28 788.466C2710.88 778.996 2693.93 764.792 2681.43 745.852C2669.12 726.723 2662.96 702.765 2662.96 673.977C2662.96 649.735 2667.22 629.28 2675.75 612.614C2684.27 595.947 2696.01 582.405 2710.97 571.989C2725.94 561.572 2743.17 553.712 2762.68 548.409C2782.19 542.917 2803.02 539.223 2825.18 537.33C2849.99 535.057 2869.97 532.689 2885.12 530.227C2900.27 527.576 2911.26 523.883 2918.08 519.148C2925.08 514.223 2928.59 507.311 2928.59 498.409V496.989C2928.59 482.405 2923.57 471.136 2913.53 463.182C2903.49 455.227 2889.95 451.25 2872.91 451.25C2854.53 451.25 2839.76 455.227 2828.59 463.182C2817.41 471.136 2810.31 482.121 2807.28 496.136L2679.16 491.591C2682.94 465.076 2692.7 441.402 2708.42 420.568C2724.33 399.545 2746.11 383.068 2773.76 371.136C2801.6 359.015 2835.03 352.955 2874.04 352.955C2901.88 352.955 2927.55 356.269 2951.03 362.898C2974.52 369.337 2994.97 378.807 3012.39 391.307C3029.82 403.617 3043.27 418.769 3052.74 436.761C3062.39 454.754 3067.22 475.303 3067.22 498.409V795H2936.54V734.205H2933.13C2925.37 748.977 2915.42 761.477 2903.3 771.705C2891.37 781.932 2877.26 789.602 2860.97 794.716C2844.88 799.83 2826.69 802.386 2806.43 802.386ZM2849.33 711.477C2864.29 711.477 2877.74 708.447 2889.67 702.386C2901.79 696.326 2911.45 687.992 2918.64 677.386C2925.84 666.591 2929.44 654.091 2929.44 639.886V598.409C2925.46 600.492 2920.63 602.386 2914.95 604.091C2909.46 605.795 2903.4 607.405 2896.77 608.92C2890.14 610.436 2883.32 611.761 2876.31 612.898C2869.31 614.034 2862.58 615.076 2856.14 616.023C2843.08 618.106 2831.9 621.326 2822.62 625.682C2813.53 630.038 2806.52 635.72 2801.6 642.727C2796.86 649.545 2794.5 657.689 2794.5 667.159C2794.5 681.553 2799.61 692.538 2809.84 700.114C2820.25 707.689 2833.42 711.477 2849.33 711.477ZM3398.51 213.182V795H3259.59V213.182H3398.51Z" fill="#3F3E3E"/>
<defs>
<filter id="filter0_d_114_54" x="253.826" y="155.844" width="425.652" height="639.055" filterUnits="userSpaceOnUse" color-interpolation-filters="sRGB">
<feFlood flood-opacity="0" result="BackgroundImageFix"/>
<feColorMatrix in="SourceAlpha" type="matrix" values="0 0 0 0 0 0 0 0 0 0 0 0 0 0 0 0 0 0 127 0" result="hardAlpha"/>
<feOffset dy="10"/>
<feGaussianBlur stdDeviation="2"/>
<feComposite in2="hardAlpha" operator="out"/>
<feColorMatrix type="matrix" values="0 0 0 0 0.291667 0 0 0 0 0.291667 0 0 0 0 0.291667 0 0 0 0.25 0"/>
<feBlend mode="normal" in2="BackgroundImageFix" result="effect1_dropShadow_114_54"/>
<feBlend mode="normal" in="SourceGraphic" in2="effect1_dropShadow_114_54" result="shape"/>
</filter>
<linearGradient id="paint0_linear_114_54" x1="9.32821" y1="399" x2="1567.09" y2="41.7357" gradientUnits="userSpaceOnUse">
<stop offset="0.00223719" stop-color="#27B861"/>
<stop offset="0.542969" stop-color="#3ED8FA"/>
<stop offset="1" stop-color="#31F2C4"/>
</linearGradient>
</defs>
</svg>
